PathFileType	4	(X/Y/Z)	C:\Users\Caesar\Desktop\±œ“µ…Ëº∆\Lee-Son's Toolbox\Example Data\Static.trc	Maker trajectories (.TRC) by Lee-Son ToolBox
DataRate	CameraRate	NumFrames	NumMarkers	Units	OrigDataRate	OrigDataStarFrame	OrigNumFrames
100	100	6	42	mm	100	1	264
Frame#	Time	CLAV			C7			RACR			LACR			RASH			RPSH			RUA3			RLEL			RMEL			RFAsuperior			RFAradius			RFAulna			LASH			LPSH			LUA1			LLEL			LMEL			LFAsuperior			LFAradius			LFAulna			LASI			RASI			LPSI			RPSI			RTH3			RLFC			RMFC			RTB3			RLMAL			RMMAL			RCAL			RMT5			RTOE			LTH1			LLFC			LMFC			LTB1			LLMAL			LMMAL			LCAL			LMT5			LTOE		
		X1	Y1	Z1	X2	Y2	Z2	X3	Y3	Z3	X4	Y4	Z4	X5	Y5	Z5	X6	Y6	Z6	X7	Y7	Z7	X8	Y8	Z8	X9	Y9	Z9	X10	Y10	Z10	X11	Y11	Z11	X12	Y12	Z12	X13	Y13	Z13	X14	Y14	Z14	X15	Y15	Z15	X16	Y16	Z16	X17	Y17	Z17	X18	Y18	Z18	X19	Y19	Z19	X20	Y20	Z20	X21	Y21	Z21	X22	Y22	Z22	X23	Y23	Z23	X24	Y24	Z24	X25	Y25	Z25	X26	Y26	Z26	X27	Y27	Z27	X28	Y28	Z28	X29	Y29	Z29	X30	Y30	Z30	X31	Y31	Z31	X32	Y32	Z32	X33	Y33	Z33	X34	Y34	Z34	X35	Y35	Z35	X36	Y36	Z36	X37	Y37	Z37	X38	Y38	Z38	X39	Y39	Z39	X40	Y40	Z40	X41	Y41	Z41	X42	Y42	Z42

199	1.98	589.067	1418.85	188.76	570.044	1468.36	329.521	735.114	1422.43	271.2	413.811	1450.37	279.938	735.587	1379.45	212.763	719.643	1366.41	350.094	818.46	1280.01	306.293	877.309	1134.83	315.339	827.805	1107.99	269.326	906.523	1079.64	324.704	1066.64	972.735	275.446	1011.86	928.687	310.003	415.357	1412.39	219.079	403.368	1389.94	349.823	331.094	1379.82	307.143	240.619	1157.85	329.771	299.866	1144.12	280.37	205.438	1109.35	338.106	80.9578	986.882	285.611	132.754	946.419	324.53	423.015	964.516	185.889	696.481	960.821	190.673	520.807	991.816	357.022	613.45	985.83	360.932	762.645	769.5	235.578	763.972	506.542	277.554	662.832	490.954	288.769	807.347	394.518	332.64	783.871	93.4087	349.796	696.701	102.85	310.9	734.261	44.7552	411.396	825.135	27.2463	236.45	757.756	38.2741	154.781	358.344	678.621	258.522	372.231	515.58	274.2	472.512	492.222	272.945	342.361	232.206	348.886	352.899	103.774	348.654	437.026	113.822	311.736	407.594	41.4208	408.847	306.112	30.2118	241.245	364.996	39.6733	154.549
200	1.99	589.067	1418.84	188.655	570.062	1468.35	329.42	735.116	1422.41	271.094	413.818	1450.37	279.845	735.584	1379.43	212.657	719.642	1366.39	349.99	818.456	1279.99	306.193	877.302	1134.81	315.242	827.8	1107.97	269.229	906.517	1079.62	324.611	1066.64	972.713	275.359	1011.86	928.667	309.915	415.358	1412.38	218.987	403.375	1389.94	349.734	331.099	1379.83	307.057	240.615	1157.86	329.7	299.86	1144.12	280.297	205.434	1109.36	338.04	80.949	986.891	285.557	132.747	946.428	324.476	423.001	964.511	185.815	696.467	960.808	190.605	520.789	991.824	356.948	613.432	985.839	360.86	762.63	769.492	235.53	763.961	506.539	277.53	662.821	490.943	288.748	807.337	394.521	332.622	783.865	93.4124	349.793	696.696	102.849	310.896	734.258	44.7566	411.394	825.133	27.2466	236.449	757.754	38.2716	154.78	358.333	678.616	258.47	372.219	515.573	274.163	472.503	492.215	272.913	342.356	232.21	348.87	352.901	103.777	348.65	437.027	113.824	311.733	407.593	41.423	408.845	306.116	30.212	241.248	365.001	39.6717	154.55
201	2	589.066	1418.83	188.549	570.08	1468.35	329.319	735.117	1422.39	270.988	413.825	1450.37	279.753	735.581	1379.41	212.552	719.64	1366.38	349.887	818.451	1279.98	306.093	877.294	1134.79	315.145	827.794	1107.95	269.133	906.51	1079.6	324.517	1066.63	972.69	275.273	1011.85	928.647	309.828	415.358	1412.38	218.895	403.382	1389.95	349.645	331.104	1379.83	306.971	240.612	1157.86	329.629	299.854	1144.12	280.225	205.43	1109.37	337.973	80.9397	986.9	285.504	132.739	946.438	324.421	422.988	964.506	185.741	696.452	960.794	190.538	520.771	991.833	356.873	613.413	985.847	360.787	762.615	769.484	235.483	763.949	506.535	277.506	662.81	490.932	288.727	807.326	394.524	332.603	783.859	93.4162	349.789	696.69	102.848	310.893	734.255	44.7579	411.393	825.13	27.2469	236.448	757.752	38.269	154.779	358.321	678.612	258.417	372.207	515.567	274.126	472.493	492.208	272.88	342.352	232.214	348.855	352.902	103.781	348.647	437.027	113.826	311.73	407.593	41.4252	408.843	306.12	30.2122	241.251	365.006	39.67	154.551
202	2.01	589.064	1418.82	188.444	570.098	1468.34	329.218	735.117	1422.37	270.883	413.832	1450.38	279.661	735.577	1379.39	212.447	719.639	1366.36	349.784	818.446	1279.96	305.993	877.285	1134.77	315.049	827.788	1107.93	269.037	906.502	1079.58	324.424	1066.62	972.667	275.187	1011.84	928.627	309.741	415.358	1412.38	218.804	403.389	1389.95	349.556	331.108	1379.84	306.885	240.607	1157.87	329.558	299.847	1144.12	280.152	205.426	1109.38	337.907	80.9298	986.909	285.451	132.73	946.448	324.367	422.973	964.501	185.667	696.437	960.781	190.471	520.753	991.842	356.799	613.394	985.855	360.714	762.599	769.477	235.435	763.938	506.532	277.482	662.799	490.921	288.706	807.315	394.527	332.585	783.852	93.4201	349.786	696.685	102.847	310.889	734.251	44.7592	411.391	825.128	27.2472	236.448	757.75	38.2664	154.778	358.309	678.607	258.365	372.194	515.56	274.088	472.484	492.201	272.847	342.347	232.218	348.839	352.902	103.785	348.643	437.027	113.828	311.726	407.593	41.4274	408.841	306.124	30.2124	241.255	365.011	39.6683	154.553
203	2.02	589.063	1418.81	188.34	570.116	1468.33	329.117	735.118	1422.35	270.778	413.838	1450.38	279.57	735.573	1379.37	212.343	719.637	1366.34	349.681	818.441	1279.94	305.894	877.276	1134.75	314.953	827.782	1107.91	268.942	906.493	1079.56	324.332	1066.62	972.644	275.103	1011.83	928.606	309.655	415.358	1412.38	218.712	403.395	1389.96	349.468	331.112	1379.84	306.8	240.603	1157.88	329.487	299.84	1144.12	280.08	205.421	1109.39	337.841	80.9196	986.919	285.398	132.722	946.458	324.312	422.959	964.496	185.593	696.421	960.768	190.404	520.734	991.85	356.725	613.374	985.863	360.642	762.583	769.469	235.388	763.925	506.528	277.458	662.787	490.91	288.684	807.304	394.531	332.566	783.846	93.4239	349.782	696.679	102.846	310.885	734.248	44.7606	411.389	825.126	27.2474	236.447	757.749	38.2638	154.777	358.297	678.603	258.312	372.182	515.553	274.05	472.474	492.194	272.814	342.342	232.222	348.824	352.903	103.789	348.639	437.028	113.83	311.723	407.593	41.4296	408.839	306.129	30.2126	241.258	365.016	39.6667	154.554
204	2.03	589.061	1418.79	188.235	570.133	1468.33	329.017	735.118	1422.33	270.674	413.844	1450.38	279.479	735.569	1379.35	212.238	719.634	1366.33	349.579	818.435	1279.92	305.795	877.267	1134.73	314.857	827.775	1107.89	268.846	906.485	1079.55	324.24	1066.61	972.62	275.018	1011.82	928.585	309.569	415.357	1412.38	218.621	403.401	1389.96	349.381	331.116	1379.85	306.715	240.598	1157.88	329.416	299.833	1144.12	280.008	205.416	1109.4	337.775	80.9088	986.929	285.345	132.712	946.468	324.258	422.943	964.491	185.519	696.405	960.754	190.337	520.714	991.858	356.65	613.354	985.871	360.569	762.567	769.461	235.34	763.913	506.525	277.434	662.776	490.899	288.663	807.293	394.534	332.548	783.839	93.4278	349.778	696.673	102.845	310.881	734.244	44.7619	411.387	825.124	27.2477	236.446	757.747	38.2612	154.776	358.284	678.598	258.259	372.169	515.547	274.012	472.463	492.187	272.78	342.338	232.226	348.808	352.904	103.793	348.635	437.028	113.832	311.72	407.592	41.4319	408.837	306.133	30.2128	241.261	365.021	39.6651	154.555
